<?xml version="1.0" encoding="UTF-8" standalone="no"?><svg xmlns="http://www.w3.org/2000/svg" xmlns:xlink="http://www.w3.org/1999/xlink" contentScriptType="application/ecmascript" contentStyleType="text/css" height="943px" preserveAspectRatio="none" style="width:1778px;height:943px;" version="1.1" viewBox="0 0 1778 943" width="1778px" zoomAndPan="magnify"><defs><filter height="300%" id="fpj5f8j" width="300%" x="-1" y="-1"><feGaussianBlur result="blurOut" stdDeviation="2.0"/><feColorMatrix in="blurOut" result="blurOut2" type="matrix" values="0 0 0 0 0 0 0 0 0 0 0 0 0 0 0 0 0 0 .4 0"/><feOffset dx="4.0" dy="4.0" in="blurOut2" result="blurOut3"/><feBlend in="SourceGraphic" in2="blurOut3" mode="normal"/></filter></defs><g><text fill="#000000" font-family="sans-serif" font-size="18" lengthAdjust="spacingAndGlyphs" textLength="123" x="841" y="18.6855">Class Structure</text><!--cluster Utility--><polygon fill="#FFFFFF" filter="url(#fpj5f8j)" points="1302,46.6406,1347,46.6406,1354,70.25,1446,70.25,1446,296.6406,1302,296.6406,1302,46.6406" style="stroke: #000000; stroke-width: 2.0;"/><line style="stroke: #000000; stroke-width: 2.0;" x1="1302" x2="1354" y1="70.25" y2="70.25"/><text fill="#000000" font-family="sans-serif" font-size="14" font-weight="bold" lengthAdjust="spacingAndGlyphs" textLength="39" x="1306" y="63.1738">Utility</text><!--cluster Player--><polygon fill="#FFFFFF" filter="url(#fpj5f8j)" points="1276,364.6406,1325,364.6406,1332,388.25,1472,388.25,1472,572.6406,1276,572.6406,1276,364.6406" style="stroke: #000000; stroke-width: 2.0;"/><line style="stroke: #000000; stroke-width: 2.0;" x1="1276" x2="1332" y1="388.25" y2="388.25"/><text fill="#000000" font-family="sans-serif" font-size="14" font-weight="bold" lengthAdjust="spacingAndGlyphs" textLength="43" x="1280" y="381.1738">Player</text><!--cluster Machine--><polygon fill="#FFFFFF" filter="url(#fpj5f8j)" points="22,320.6406,88,320.6406,95,344.25,1252,344.25,1252,936.6406,22,936.6406,22,320.6406" style="stroke: #000000; stroke-width: 2.0;"/><line style="stroke: #000000; stroke-width: 2.0;" x1="22" x2="95" y1="344.25" y2="344.25"/><text fill="#000000" font-family="sans-serif" font-size="14" font-weight="bold" lengthAdjust="spacingAndGlyphs" textLength="60" x="26" y="337.1738">Machine</text><!--cluster Status--><polygon fill="#FFFFFF" filter="url(#fpj5f8j)" points="470,596.6406,520,596.6406,527,620.25,797,620.25,797,912.6406,470,912.6406,470,596.6406" style="stroke: #000000; stroke-width: 2.0;"/><line style="stroke: #000000; stroke-width: 2.0;" x1="470" x2="527" y1="620.25" y2="620.25"/><text fill="#000000" font-family="sans-serif" font-size="14" font-weight="bold" lengthAdjust="spacingAndGlyphs" textLength="44" x="474" y="613.1738">Status</text><!--cluster Attack--><polygon fill="#FFFFFF" filter="url(#fpj5f8j)" points="967,364.6406,1016,364.6406,1023,388.25,1228,388.25,1228,696.6406,967,696.6406,967,364.6406" style="stroke: #000000; stroke-width: 2.0;"/><line style="stroke: #000000; stroke-width: 2.0;" x1="967" x2="1023" y1="388.25" y2="388.25"/><text fill="#000000" font-family="sans-serif" font-size="14" font-weight="bold" lengthAdjust="spacingAndGlyphs" textLength="43" x="971" y="381.1738">Attack</text><!--cluster UI--><polygon fill="#FFFFFF" filter="url(#fpj5f8j)" points="821,596.6406,841,596.6406,848,620.25,943,620.25,943,696.6406,821,696.6406,821,596.6406" style="stroke: #000000; stroke-width: 2.0;"/><line style="stroke: #000000; stroke-width: 2.0;" x1="821" x2="848" y1="620.25" y2="620.25"/><text fill="#000000" font-family="sans-serif" font-size="14" font-weight="bold" lengthAdjust="spacingAndGlyphs" textLength="14" x="825" y="613.1738">UI</text><!--cluster Body--><polygon fill="#FFFFFF" filter="url(#fpj5f8j)" points="156,472.6406,197,472.6406,204,496.25,306,496.25,306,696.6406,156,696.6406,156,472.6406" style="stroke: #000000; stroke-width: 2.0;"/><line style="stroke: #000000; stroke-width: 2.0;" x1="156" x2="204" y1="496.25" y2="496.25"/><text fill="#000000" font-family="sans-serif" font-size="14" font-weight="bold" lengthAdjust="spacingAndGlyphs" textLength="35" x="160" y="489.1738">Body</text><!--cluster Others--><polygon fill="#FFFFFF" filter="url(#fpj5f8j)" points="1470,60.6406,1524,60.6406,1531,84.25,1771,84.25,1771,289.6406,1470,289.6406,1470,60.6406" style="stroke: #000000; stroke-width: 2.0;"/><line style="stroke: #000000; stroke-width: 2.0;" x1="1470" x2="1531" y1="84.25" y2="84.25"/><text fill="#000000" font-family="sans-serif" font-size="14" font-weight="bold" lengthAdjust="spacingAndGlyphs" textLength="48" x="1474" y="77.1738">Others</text><!--class di--><rect fill="#FEFECE" filter="url(#fpj5f8j)" height="61.8359" style="stroke: #A80036; stroke-width: 1.5;" width="94" x="1327" y="218.6406"/><ellipse cx="1365.4" cy="234.6406" fill="#B4A7E5" rx="11" ry="11" style="stroke: #A80036; stroke-width: 1.0;"/><path d="M1366.3844,239.5469 L1367.1188,239.5469 L1367.1188,241 L1363.1188,241 L1363.1188,239.5469 L1363.8531,239.5469 L1363.8531,229.5156 L1363.1188,229.5156 L1363.1188,228.0625 L1367.1188,228.0625 L1367.1188,229.5156 L1366.3844,229.5156 L1366.3844,239.5469 Z "/><text fill="#000000" font-family="sans-serif" font-size="12" font-style="italic" lengthAdjust="spacingAndGlyphs" textLength="10" x="1384.6" y="239.5508">di</text><line style="stroke: #A80036; stroke-width: 1.5;" x1="1328" x2="1420" y1="250.6406" y2="250.6406"/><line style="stroke: #A80036; stroke-width: 1.5;" x1="1328" x2="1420" y1="258.6406" y2="258.6406"/><text fill="#000000" font-family="sans-serif" font-size="11" lengthAdjust="spacingAndGlyphs" textLength="82" x="1333" y="274.0596">IUserInput User()</text><!--class IUserInput--><rect fill="#FEFECE" filter="url(#fpj5f8j)" height="75.6719" style="stroke: #A80036; stroke-width: 1.5;" width="112" x="1318" y="82.6406"/><ellipse cx="1342.9" cy="98.6406" fill="#B4A7E5" rx="11" ry="11" style="stroke: #A80036; stroke-width: 1.0;"/><path d="M1343.8844,103.5469 L1344.6188,103.5469 L1344.6188,105 L1340.6188,105 L1340.6188,103.5469 L1341.3531,103.5469 L1341.3531,93.5156 L1340.6188,93.5156 L1340.6188,92.0625 L1344.6188,92.0625 L1344.6188,93.5156 L1343.8844,93.5156 L1343.8844,103.5469 Z "/><text fill="#000000" font-family="sans-serif" font-size="12" font-style="italic" lengthAdjust="spacingAndGlyphs" textLength="58" x="1359.1" y="103.5508">IUserInput</text><line style="stroke: #A80036; stroke-width: 1.5;" x1="1319" x2="1429" y1="114.6406" y2="114.6406"/><line style="stroke: #A80036; stroke-width: 1.5;" x1="1319" x2="1429" y1="122.6406" y2="122.6406"/><text fill="#000000" font-family="sans-serif" font-size="11" lengthAdjust="spacingAndGlyphs" textLength="100" x="1324" y="138.0596">IArrowInput Arrow()</text><text fill="#000000" font-family="sans-serif" font-size="11" lengthAdjust="spacingAndGlyphs" textLength="98" x="1324" y="151.8955">IButtonInput Button()</text><!--class IObservablePlayerInput--><rect fill="#FEFECE" filter="url(#fpj5f8j)" height="48" style="stroke: #A80036; stroke-width: 1.5;" width="164" x="1292" y="508.6406"/><ellipse cx="1307" cy="524.6406" fill="#B4A7E5" rx="11" ry="11" style="stroke: #A80036; stroke-width: 1.0;"/><path d="M1307.9844,529.5469 L1308.7188,529.5469 L1308.7188,531 L1304.7188,531 L1304.7188,529.5469 L1305.4531,529.5469 L1305.4531,519.5156 L1304.7188,519.5156 L1304.7188,518.0625 L1308.7188,518.0625 L1308.7188,519.5156 L1307.9844,519.5156 L1307.9844,529.5469 Z "/><text fill="#000000" font-family="sans-serif" font-size="12" font-style="italic" lengthAdjust="spacingAndGlyphs" textLength="132" x="1321" y="529.5508">IObservablePlayerInput</text><line style="stroke: #A80036; stroke-width: 1.5;" x1="1293" x2="1455" y1="540.6406" y2="540.6406"/><line style="stroke: #A80036; stroke-width: 1.5;" x1="1293" x2="1455" y1="548.6406" y2="548.6406"/><!--class PlayerInput--><rect fill="#FEFECE" filter="url(#fpj5f8j)" height="48" style="stroke: #A80036; stroke-width: 1.5;" width="93" x="1327.5" y="400.6406"/><ellipse cx="1342.5" cy="416.6406" fill="#ADD1B2" rx="11" ry="11" style="stroke: #A80036; stroke-width: 1.0;"/><path d="M1345.2031,422.0781 Q1344.2813,423 1342.0156,423 Q1340.75,423 1339.8281,422.0781 Q1338.1719,420.4219 1338.1719,416.8906 Q1338.1719,412.7813 1339.9531,410.9844 Q1340.8906,410.0625 1342.0781,410.0625 Q1344.3438,410.0625 1345.0781,410.7813 Q1346.4688,412.1875 1346.4063,414.5781 L1343.9375,414.5781 Q1343.875,412.4531 1343.1406,411.7188 Q1342.75,411.3125 1342.0781,411.3125 Q1342.0781,411.3125 1342.0156,411.7813 Q1340.6875,413.1094 1340.6875,416.7656 Q1340.6875,419.9531 1341.8281,421.0781 Q1342.3594,421.6094 1342.3594,421.6094 Q1342.6094,421.6094 1343.1406,421.0781 Q1343.8125,420.4219 1343.875,418.0313 L1346.4688,418.0313 Q1346.2656,421.0156 1345.2031,422.0781 Z "/><text fill="#000000" font-family="sans-serif" font-size="12" lengthAdjust="spacingAndGlyphs" textLength="61" x="1356.5" y="421.5508">PlayerInput</text><line style="stroke: #A80036; stroke-width: 1.5;" x1="1328.5" x2="1419.5" y1="432.6406" y2="432.6406"/><line style="stroke: #A80036; stroke-width: 1.5;" x1="1328.5" x2="1419.5" y1="440.6406" y2="440.6406"/><!--class MachineController--><rect fill="#FEFECE" filter="url(#fpj5f8j)" height="48" style="stroke: #A80036; stroke-width: 1.5;" width="132" x="322" y="632.6406"/><ellipse cx="337" cy="648.6406" fill="#ADD1B2" rx="11" ry="11" style="stroke: #A80036; stroke-width: 1.0;"/><path d="M339.7031,654.0781 Q338.7813,655 336.5156,655 Q335.25,655 334.3281,654.0781 Q332.6719,652.4219 332.6719,648.8906 Q332.6719,644.7813 334.4531,642.9844 Q335.3906,642.0625 336.5781,642.0625 Q338.8438,642.0625 339.5781,642.7813 Q340.9688,644.1875 340.9063,646.5781 L338.4375,646.5781 Q338.375,644.4531 337.6406,643.7188 Q337.25,643.3125 336.5781,643.3125 Q336.5781,643.3125 336.5156,643.7813 Q335.1875,645.1094 335.1875,648.7656 Q335.1875,651.9531 336.3281,653.0781 Q336.8594,653.6094 336.8594,653.6094 Q337.1094,653.6094 337.6406,653.0781 Q338.3125,652.4219 338.375,650.0313 L340.9688,650.0313 Q340.7656,653.0156 339.7031,654.0781 Z "/><text fill="#000000" font-family="sans-serif" font-size="12" lengthAdjust="spacingAndGlyphs" textLength="100" x="351" y="653.5508">MachineController</text><line style="stroke: #A80036; stroke-width: 1.5;" x1="323" x2="453" y1="664.6406" y2="664.6406"/><line style="stroke: #A80036; stroke-width: 1.5;" x1="323" x2="453" y1="672.6406" y2="672.6406"/><!--class Collider--><rect fill="#FEFECE" filter="url(#fpj5f8j)" height="48" style="stroke: #A80036; stroke-width: 1.5;" width="75" x="205.5" y="848.6406"/><ellipse cx="220.5" cy="864.6406" fill="#ADD1B2" rx="11" ry="11" style="stroke: #A80036; stroke-width: 1.0;"/><path d="M223.2031,870.0781 Q222.2813,871 220.0156,871 Q218.75,871 217.8281,870.0781 Q216.1719,868.4219 216.1719,864.8906 Q216.1719,860.7813 217.9531,858.9844 Q218.8906,858.0625 220.0781,858.0625 Q222.3438,858.0625 223.0781,858.7813 Q224.4688,860.1875 224.4063,862.5781 L221.9375,862.5781 Q221.875,860.4531 221.1406,859.7188 Q220.75,859.3125 220.0781,859.3125 Q220.0781,859.3125 220.0156,859.7813 Q218.6875,861.1094 218.6875,864.7656 Q218.6875,867.9531 219.8281,869.0781 Q220.3594,869.6094 220.3594,869.6094 Q220.6094,869.6094 221.1406,869.0781 Q221.8125,868.4219 221.875,866.0313 L224.4688,866.0313 Q224.2656,869.0156 223.2031,870.0781 Z "/><text fill="#000000" font-family="sans-serif" font-size="12" lengthAdjust="spacingAndGlyphs" textLength="43" x="234.5" y="869.5508">Collider</text><line style="stroke: #A80036; stroke-width: 1.5;" x1="206.5" x2="279.5" y1="880.6406" y2="880.6406"/><line style="stroke: #A80036; stroke-width: 1.5;" x1="206.5" x2="279.5" y1="888.6406" y2="888.6406"/><!--class IObservableCollider--><rect fill="#FEFECE" filter="url(#fpj5f8j)" height="48" style="stroke: #A80036; stroke-width: 1.5;" width="144" x="175" y="740.6406"/><ellipse cx="190" cy="756.6406" fill="#B4A7E5" rx="11" ry="11" style="stroke: #A80036; stroke-width: 1.0;"/><path d="M190.9844,761.5469 L191.7188,761.5469 L191.7188,763 L187.7188,763 L187.7188,761.5469 L188.4531,761.5469 L188.4531,751.5156 L187.7188,751.5156 L187.7188,750.0625 L191.7188,750.0625 L191.7188,751.5156 L190.9844,751.5156 L190.9844,761.5469 Z "/><text fill="#000000" font-family="sans-serif" font-size="12" font-style="italic" lengthAdjust="spacingAndGlyphs" textLength="112" x="204" y="761.5508">IObservableCollider</text><line style="stroke: #A80036; stroke-width: 1.5;" x1="176" x2="318" y1="772.6406" y2="772.6406"/><line style="stroke: #A80036; stroke-width: 1.5;" x1="176" x2="318" y1="780.6406" y2="780.6406"/><!--class ConcreteSoftWare--><rect fill="#FEFECE" filter="url(#fpj5f8j)" height="48" style="stroke: #A80036; stroke-width: 1.5;" width="132" x="38" y="848.6406"/><ellipse cx="53" cy="864.6406" fill="#ADD1B2" rx="11" ry="11" style="stroke: #A80036; stroke-width: 1.0;"/><path d="M55.7031,870.0781 Q54.7813,871 52.5156,871 Q51.25,871 50.3281,870.0781 Q48.6719,868.4219 48.6719,864.8906 Q48.6719,860.7813 50.4531,858.9844 Q51.3906,858.0625 52.5781,858.0625 Q54.8438,858.0625 55.5781,858.7813 Q56.9688,860.1875 56.9063,862.5781 L54.4375,862.5781 Q54.375,860.4531 53.6406,859.7188 Q53.25,859.3125 52.5781,859.3125 Q52.5781,859.3125 52.5156,859.7813 Q51.1875,861.1094 51.1875,864.7656 Q51.1875,867.9531 52.3281,869.0781 Q52.8594,869.6094 52.8594,869.6094 Q53.1094,869.6094 53.6406,869.0781 Q54.3125,868.4219 54.375,866.0313 L56.9688,866.0313 Q56.7656,869.0156 55.7031,870.0781 Z "/><text fill="#000000" font-family="sans-serif" font-size="12" lengthAdjust="spacingAndGlyphs" textLength="100" x="67" y="869.5508">ConcreteSoftWare</text><line style="stroke: #A80036; stroke-width: 1.5;" x1="39" x2="169" y1="880.6406" y2="880.6406"/><line style="stroke: #A80036; stroke-width: 1.5;" x1="39" x2="169" y1="888.6406" y2="888.6406"/><!--class ISoftWare--><rect fill="#FEFECE" filter="url(#fpj5f8j)" height="48" style="stroke: #A80036; stroke-width: 1.5;" width="86" x="54" y="740.6406"/><ellipse cx="69" cy="756.6406" fill="#B4A7E5" rx="11" ry="11" style="stroke: #A80036; stroke-width: 1.0;"/><path d="M69.9844,761.5469 L70.7188,761.5469 L70.7188,763 L66.7188,763 L66.7188,761.5469 L67.4531,761.5469 L67.4531,751.5156 L66.7188,751.5156 L66.7188,750.0625 L70.7188,750.0625 L70.7188,751.5156 L69.9844,751.5156 L69.9844,761.5469 Z "/><text fill="#000000" font-family="sans-serif" font-size="12" font-style="italic" lengthAdjust="spacingAndGlyphs" textLength="54" x="83" y="761.5508">ISoftWare</text><line style="stroke: #A80036; stroke-width: 1.5;" x1="55" x2="139" y1="772.6406" y2="772.6406"/><line style="stroke: #A80036; stroke-width: 1.5;" x1="55" x2="139" y1="780.6406" y2="780.6406"/><!--class ConcreteHardWare--><rect fill="#FEFECE" filter="url(#fpj5f8j)" height="48" style="stroke: #A80036; stroke-width: 1.5;" width="138" x="316" y="848.6406"/><ellipse cx="331" cy="864.6406" fill="#ADD1B2" rx="11" ry="11" style="stroke: #A80036; stroke-width: 1.0;"/><path d="M333.7031,870.0781 Q332.7813,871 330.5156,871 Q329.25,871 328.3281,870.0781 Q326.6719,868.4219 326.6719,864.8906 Q326.6719,860.7813 328.4531,858.9844 Q329.3906,858.0625 330.5781,858.0625 Q332.8438,858.0625 333.5781,858.7813 Q334.9688,860.1875 334.9063,862.5781 L332.4375,862.5781 Q332.375,860.4531 331.6406,859.7188 Q331.25,859.3125 330.5781,859.3125 Q330.5781,859.3125 330.5156,859.7813 Q329.1875,861.1094 329.1875,864.7656 Q329.1875,867.9531 330.3281,869.0781 Q330.8594,869.6094 330.8594,869.6094 Q331.1094,869.6094 331.6406,869.0781 Q332.3125,868.4219 332.375,866.0313 L334.9688,866.0313 Q334.7656,869.0156 333.7031,870.0781 Z "/><text fill="#000000" font-family="sans-serif" font-size="12" lengthAdjust="spacingAndGlyphs" textLength="106" x="345" y="869.5508">ConcreteHardWare</text><line style="stroke: #A80036; stroke-width: 1.5;" x1="317" x2="453" y1="880.6406" y2="880.6406"/><line style="stroke: #A80036; stroke-width: 1.5;" x1="317" x2="453" y1="888.6406" y2="888.6406"/><!--class IHardWare--><rect fill="#FEFECE" filter="url(#fpj5f8j)" height="48" style="stroke: #A80036; stroke-width: 1.5;" width="92" x="354" y="740.6406"/><ellipse cx="369" cy="756.6406" fill="#B4A7E5" rx="11" ry="11" style="stroke: #A80036; stroke-width: 1.0;"/><path d="M369.9844,761.5469 L370.7188,761.5469 L370.7188,763 L366.7188,763 L366.7188,761.5469 L367.4531,761.5469 L367.4531,751.5156 L366.7188,751.5156 L366.7188,750.0625 L370.7188,750.0625 L370.7188,751.5156 L369.9844,751.5156 L369.9844,761.5469 Z "/><text fill="#000000" font-family="sans-serif" font-size="12" font-style="italic" lengthAdjust="spacingAndGlyphs" textLength="60" x="383" y="761.5508">IHardWare</text><line style="stroke: #A80036; stroke-width: 1.5;" x1="355" x2="445" y1="772.6406" y2="772.6406"/><line style="stroke: #A80036; stroke-width: 1.5;" x1="355" x2="445" y1="780.6406" y2="780.6406"/><!--class Status--><rect fill="#FEFECE" filter="url(#fpj5f8j)" height="48" style="stroke: #A80036; stroke-width: 1.5;" width="67" x="570.5" y="848.6406"/><ellipse cx="585.5" cy="864.6406" fill="#ADD1B2" rx="11" ry="11" style="stroke: #A80036; stroke-width: 1.0;"/><path d="M588.2031,870.0781 Q587.2813,871 585.0156,871 Q583.75,871 582.8281,870.0781 Q581.1719,868.4219 581.1719,864.8906 Q581.1719,860.7813 582.9531,858.9844 Q583.8906,858.0625 585.0781,858.0625 Q587.3438,858.0625 588.0781,858.7813 Q589.4688,860.1875 589.4063,862.5781 L586.9375,862.5781 Q586.875,860.4531 586.1406,859.7188 Q585.75,859.3125 585.0781,859.3125 Q585.0781,859.3125 585.0156,859.7813 Q583.6875,861.1094 583.6875,864.7656 Q583.6875,867.9531 584.8281,869.0781 Q585.3594,869.6094 585.3594,869.6094 Q585.6094,869.6094 586.1406,869.0781 Q586.8125,868.4219 586.875,866.0313 L589.4688,866.0313 Q589.2656,869.0156 588.2031,870.0781 Z "/><text fill="#000000" font-family="sans-serif" font-size="12" lengthAdjust="spacingAndGlyphs" textLength="35" x="599.5" y="869.5508">Status</text><line style="stroke: #A80036; stroke-width: 1.5;" x1="571.5" x2="636.5" y1="880.6406" y2="880.6406"/><line style="stroke: #A80036; stroke-width: 1.5;" x1="571.5" x2="636.5" y1="888.6406" y2="888.6406"/><!--class IStatus--><rect fill="#FEFECE" filter="url(#fpj5f8j)" height="48" style="stroke: #A80036; stroke-width: 1.5;" width="70" x="486" y="740.6406"/><ellipse cx="501" cy="756.6406" fill="#B4A7E5" rx="11" ry="11" style="stroke: #A80036; stroke-width: 1.0;"/><path d="M501.9844,761.5469 L502.7188,761.5469 L502.7188,763 L498.7188,763 L498.7188,761.5469 L499.4531,761.5469 L499.4531,751.5156 L498.7188,751.5156 L498.7188,750.0625 L502.7188,750.0625 L502.7188,751.5156 L501.9844,751.5156 L501.9844,761.5469 Z "/><text fill="#000000" font-family="sans-serif" font-size="12" font-style="italic" lengthAdjust="spacingAndGlyphs" textLength="38" x="515" y="761.5508">IStatus</text><line style="stroke: #A80036; stroke-width: 1.5;" x1="487" x2="555" y1="772.6406" y2="772.6406"/><line style="stroke: #A80036; stroke-width: 1.5;" x1="487" x2="555" y1="780.6406" y2="780.6406"/><!--class IReadOnlyStatus--><rect fill="#FEFECE" filter="url(#fpj5f8j)" height="48" style="stroke: #A80036; stroke-width: 1.5;" width="125" x="623.5" y="632.6406"/><ellipse cx="638.5" cy="648.6406" fill="#B4A7E5" rx="11" ry="11" style="stroke: #A80036; stroke-width: 1.0;"/><path d="M639.4844,653.5469 L640.2188,653.5469 L640.2188,655 L636.2188,655 L636.2188,653.5469 L636.9531,653.5469 L636.9531,643.5156 L636.2188,643.5156 L636.2188,642.0625 L640.2188,642.0625 L640.2188,643.5156 L639.4844,643.5156 L639.4844,653.5469 Z "/><text fill="#000000" font-family="sans-serif" font-size="12" font-style="italic" lengthAdjust="spacingAndGlyphs" textLength="93" x="652.5" y="653.5508">IReadOnlyStatus</text><line style="stroke: #A80036; stroke-width: 1.5;" x1="624.5" x2="747.5" y1="664.6406" y2="664.6406"/><line style="stroke: #A80036; stroke-width: 1.5;" x1="624.5" x2="747.5" y1="672.6406" y2="672.6406"/><!--class IReadOnlyObservableStatus--><rect fill="#FEFECE" filter="url(#fpj5f8j)" height="48" style="stroke: #A80036; stroke-width: 1.5;" width="190" x="591" y="740.6406"/><ellipse cx="606" cy="756.6406" fill="#B4A7E5" rx="11" ry="11" style="stroke: #A80036; stroke-width: 1.0;"/><path d="M606.9844,761.5469 L607.7188,761.5469 L607.7188,763 L603.7188,763 L603.7188,761.5469 L604.4531,761.5469 L604.4531,751.5156 L603.7188,751.5156 L603.7188,750.0625 L607.7188,750.0625 L607.7188,751.5156 L606.9844,751.5156 L606.9844,761.5469 Z "/><text fill="#000000" font-family="sans-serif" font-size="12" font-style="italic" lengthAdjust="spacingAndGlyphs" textLength="158" x="620" y="761.5508">IReadOnlyObservableStatus</text><line style="stroke: #A80036; stroke-width: 1.5;" x1="592" x2="780" y1="772.6406" y2="772.6406"/><line style="stroke: #A80036; stroke-width: 1.5;" x1="592" x2="780" y1="780.6406" y2="780.6406"/><!--class IAttackController--><rect fill="#FEFECE" filter="url(#fpj5f8j)" height="48" style="stroke: #A80036; stroke-width: 1.5;" width="124" x="983" y="508.6406"/><ellipse cx="998" cy="524.6406" fill="#B4A7E5" rx="11" ry="11" style="stroke: #A80036; stroke-width: 1.0;"/><path d="M998.9844,529.5469 L999.7188,529.5469 L999.7188,531 L995.7188,531 L995.7188,529.5469 L996.4531,529.5469 L996.4531,519.5156 L995.7188,519.5156 L995.7188,518.0625 L999.7188,518.0625 L999.7188,519.5156 L998.9844,519.5156 L998.9844,529.5469 Z "/><text fill="#000000" font-family="sans-serif" font-size="12" font-style="italic" lengthAdjust="spacingAndGlyphs" textLength="92" x="1012" y="529.5508">IAttackController</text><line style="stroke: #A80036; stroke-width: 1.5;" x1="984" x2="1106" y1="540.6406" y2="540.6406"/><line style="stroke: #A80036; stroke-width: 1.5;" x1="984" x2="1106" y1="548.6406" y2="548.6406"/><!--class AttackController--><rect fill="#FEFECE" filter="url(#fpj5f8j)" height="48" style="stroke: #A80036; stroke-width: 1.5;" width="118" x="1040" y="400.6406"/><ellipse cx="1055" cy="416.6406" fill="#ADD1B2" rx="11" ry="11" style="stroke: #A80036; stroke-width: 1.0;"/><path d="M1057.7031,422.0781 Q1056.7813,423 1054.5156,423 Q1053.25,423 1052.3281,422.0781 Q1050.6719,420.4219 1050.6719,416.8906 Q1050.6719,412.7813 1052.4531,410.9844 Q1053.3906,410.0625 1054.5781,410.0625 Q1056.8438,410.0625 1057.5781,410.7813 Q1058.9688,412.1875 1058.9063,414.5781 L1056.4375,414.5781 Q1056.375,412.4531 1055.6406,411.7188 Q1055.25,411.3125 1054.5781,411.3125 Q1054.5781,411.3125 1054.5156,411.7813 Q1053.1875,413.1094 1053.1875,416.7656 Q1053.1875,419.9531 1054.3281,421.0781 Q1054.8594,421.6094 1054.8594,421.6094 Q1055.1094,421.6094 1055.6406,421.0781 Q1056.3125,420.4219 1056.375,418.0313 L1058.9688,418.0313 Q1058.7656,421.0156 1057.7031,422.0781 Z "/><text fill="#000000" font-family="sans-serif" font-size="12" lengthAdjust="spacingAndGlyphs" textLength="86" x="1069" y="421.5508">AttackController</text><line style="stroke: #A80036; stroke-width: 1.5;" x1="1041" x2="1157" y1="432.6406" y2="432.6406"/><line style="stroke: #A80036; stroke-width: 1.5;" x1="1041" x2="1157" y1="440.6406" y2="440.6406"/><!--class IAttack--><rect fill="#FEFECE" filter="url(#fpj5f8j)" height="48" style="stroke: #A80036; stroke-width: 1.5;" width="70" x="1142" y="508.6406"/><ellipse cx="1157" cy="524.6406" fill="#B4A7E5" rx="11" ry="11" style="stroke: #A80036; stroke-width: 1.0;"/><path d="M1157.9844,529.5469 L1158.7188,529.5469 L1158.7188,531 L1154.7188,531 L1154.7188,529.5469 L1155.4531,529.5469 L1155.4531,519.5156 L1154.7188,519.5156 L1154.7188,518.0625 L1158.7188,518.0625 L1158.7188,519.5156 L1157.9844,519.5156 L1157.9844,529.5469 Z "/><text fill="#000000" font-family="sans-serif" font-size="12" font-style="italic" lengthAdjust="spacingAndGlyphs" textLength="38" x="1171" y="529.5508">IAttack</text><line style="stroke: #A80036; stroke-width: 1.5;" x1="1143" x2="1211" y1="540.6406" y2="540.6406"/><line style="stroke: #A80036; stroke-width: 1.5;" x1="1143" x2="1211" y1="548.6406" y2="548.6406"/><!--class ConcreteAttack--><rect fill="#FEFECE" filter="url(#fpj5f8j)" height="48" style="stroke: #A80036; stroke-width: 1.5;" width="114" x="1098" y="632.6406"/><ellipse cx="1113" cy="648.6406" fill="#ADD1B2" rx="11" ry="11" style="stroke: #A80036; stroke-width: 1.0;"/><path d="M1115.7031,654.0781 Q1114.7813,655 1112.5156,655 Q1111.25,655 1110.3281,654.0781 Q1108.6719,652.4219 1108.6719,648.8906 Q1108.6719,644.7813 1110.4531,642.9844 Q1111.3906,642.0625 1112.5781,642.0625 Q1114.8438,642.0625 1115.5781,642.7813 Q1116.9688,644.1875 1116.9063,646.5781 L1114.4375,646.5781 Q1114.375,644.4531 1113.6406,643.7188 Q1113.25,643.3125 1112.5781,643.3125 Q1112.5781,643.3125 1112.5156,643.7813 Q1111.1875,645.1094 1111.1875,648.7656 Q1111.1875,651.9531 1112.3281,653.0781 Q1112.8594,653.6094 1112.8594,653.6094 Q1113.1094,653.6094 1113.6406,653.0781 Q1114.3125,652.4219 1114.375,650.0313 L1116.9688,650.0313 Q1116.7656,653.0156 1115.7031,654.0781 Z "/><text fill="#000000" font-family="sans-serif" font-size="12" lengthAdjust="spacingAndGlyphs" textLength="82" x="1127" y="653.5508">ConcreteAttack</text><line style="stroke: #A80036; stroke-width: 1.5;" x1="1099" x2="1211" y1="664.6406" y2="664.6406"/><line style="stroke: #A80036; stroke-width: 1.5;" x1="1099" x2="1211" y1="672.6406" y2="672.6406"/><!--class MachineUI--><rect fill="#FEFECE" filter="url(#fpj5f8j)" height="48" style="stroke: #A80036; stroke-width: 1.5;" width="90" x="837" y="632.6406"/><ellipse cx="852" cy="648.6406" fill="#ADD1B2" rx="11" ry="11" style="stroke: #A80036; stroke-width: 1.0;"/><path d="M854.7031,654.0781 Q853.7813,655 851.5156,655 Q850.25,655 849.3281,654.0781 Q847.6719,652.4219 847.6719,648.8906 Q847.6719,644.7813 849.4531,642.9844 Q850.3906,642.0625 851.5781,642.0625 Q853.8438,642.0625 854.5781,642.7813 Q855.9688,644.1875 855.9063,646.5781 L853.4375,646.5781 Q853.375,644.4531 852.6406,643.7188 Q852.25,643.3125 851.5781,643.3125 Q851.5781,643.3125 851.5156,643.7813 Q850.1875,645.1094 850.1875,648.7656 Q850.1875,651.9531 851.3281,653.0781 Q851.8594,653.6094 851.8594,653.6094 Q852.1094,653.6094 852.6406,653.0781 Q853.3125,652.4219 853.375,650.0313 L855.9688,650.0313 Q855.7656,653.0156 854.7031,654.0781 Z "/><text fill="#000000" font-family="sans-serif" font-size="12" lengthAdjust="spacingAndGlyphs" textLength="58" x="866" y="653.5508">MachineUI</text><line style="stroke: #A80036; stroke-width: 1.5;" x1="838" x2="926" y1="664.6406" y2="664.6406"/><line style="stroke: #A80036; stroke-width: 1.5;" x1="838" x2="926" y1="672.6406" y2="672.6406"/><!--class IBodyController--><rect fill="#FEFECE" filter="url(#fpj5f8j)" height="48" style="stroke: #A80036; stroke-width: 1.5;" width="118" x="172" y="508.6406"/><ellipse cx="187" cy="524.6406" fill="#B4A7E5" rx="11" ry="11" style="stroke: #A80036; stroke-width: 1.0;"/><path d="M187.9844,529.5469 L188.7188,529.5469 L188.7188,531 L184.7188,531 L184.7188,529.5469 L185.4531,529.5469 L185.4531,519.5156 L184.7188,519.5156 L184.7188,518.0625 L188.7188,518.0625 L188.7188,519.5156 L187.9844,519.5156 L187.9844,529.5469 Z "/><text fill="#000000" font-family="sans-serif" font-size="12" font-style="italic" lengthAdjust="spacingAndGlyphs" textLength="86" x="201" y="529.5508">IBodyController</text><line style="stroke: #A80036; stroke-width: 1.5;" x1="173" x2="289" y1="540.6406" y2="540.6406"/><line style="stroke: #A80036; stroke-width: 1.5;" x1="173" x2="289" y1="548.6406" y2="548.6406"/><!--class BodyController--><rect fill="#FEFECE" filter="url(#fpj5f8j)" height="48" style="stroke: #A80036; stroke-width: 1.5;" width="113" x="173.5" y="632.6406"/><ellipse cx="188.5" cy="648.6406" fill="#ADD1B2" rx="11" ry="11" style="stroke: #A80036; stroke-width: 1.0;"/><path d="M191.2031,654.0781 Q190.2813,655 188.0156,655 Q186.75,655 185.8281,654.0781 Q184.1719,652.4219 184.1719,648.8906 Q184.1719,644.7813 185.9531,642.9844 Q186.8906,642.0625 188.0781,642.0625 Q190.3438,642.0625 191.0781,642.7813 Q192.4688,644.1875 192.4063,646.5781 L189.9375,646.5781 Q189.875,644.4531 189.1406,643.7188 Q188.75,643.3125 188.0781,643.3125 Q188.0781,643.3125 188.0156,643.7813 Q186.6875,645.1094 186.6875,648.7656 Q186.6875,651.9531 187.8281,653.0781 Q188.3594,653.6094 188.3594,653.6094 Q188.6094,653.6094 189.1406,653.0781 Q189.8125,652.4219 189.875,650.0313 L192.4688,650.0313 Q192.2656,653.0156 191.2031,654.0781 Z "/><text fill="#000000" font-family="sans-serif" font-size="12" lengthAdjust="spacingAndGlyphs" textLength="81" x="202.5" y="653.5508">BodyController</text><line style="stroke: #A80036; stroke-width: 1.5;" x1="174.5" x2="285.5" y1="664.6406" y2="664.6406"/><line style="stroke: #A80036; stroke-width: 1.5;" x1="174.5" x2="285.5" y1="672.6406" y2="672.6406"/><!--class ConcreteStage--><rect fill="#FEFECE" filter="url(#fpj5f8j)" height="48" style="stroke: #A80036; stroke-width: 1.5;" width="114" x="1641" y="225.6406"/><ellipse cx="1656" cy="241.6406" fill="#ADD1B2" rx="11" ry="11" style="stroke: #A80036; stroke-width: 1.0;"/><path d="M1658.7031,247.0781 Q1657.7813,248 1655.5156,248 Q1654.25,248 1653.3281,247.0781 Q1651.6719,245.4219 1651.6719,241.8906 Q1651.6719,237.7813 1653.4531,235.9844 Q1654.3906,235.0625 1655.5781,235.0625 Q1657.8438,235.0625 1658.5781,235.7813 Q1659.9688,237.1875 1659.9063,239.5781 L1657.4375,239.5781 Q1657.375,237.4531 1656.6406,236.7188 Q1656.25,236.3125 1655.5781,236.3125 Q1655.5781,236.3125 1655.5156,236.7813 Q1654.1875,238.1094 1654.1875,241.7656 Q1654.1875,244.9531 1655.3281,246.0781 Q1655.8594,246.6094 1655.8594,246.6094 Q1656.1094,246.6094 1656.6406,246.0781 Q1657.3125,245.4219 1657.375,243.0313 L1659.9688,243.0313 Q1659.7656,246.0156 1658.7031,247.0781 Z "/><text fill="#000000" font-family="sans-serif" font-size="12" lengthAdjust="spacingAndGlyphs" textLength="82" x="1670" y="246.5508">ConcreteStage</text><line style="stroke: #A80036; stroke-width: 1.5;" x1="1642" x2="1754" y1="257.6406" y2="257.6406"/><line style="stroke: #A80036; stroke-width: 1.5;" x1="1642" x2="1754" y1="265.6406" y2="265.6406"/><!--class IStage--><rect fill="#FEFECE" filter="url(#fpj5f8j)" height="48" style="stroke: #A80036; stroke-width: 1.5;" width="68" x="1664" y="96.6406"/><ellipse cx="1679" cy="112.6406" fill="#B4A7E5" rx="11" ry="11" style="stroke: #A80036; stroke-width: 1.0;"/><path d="M1679.9844,117.5469 L1680.7188,117.5469 L1680.7188,119 L1676.7188,119 L1676.7188,117.5469 L1677.4531,117.5469 L1677.4531,107.5156 L1676.7188,107.5156 L1676.7188,106.0625 L1680.7188,106.0625 L1680.7188,107.5156 L1679.9844,107.5156 L1679.9844,117.5469 Z "/><text fill="#000000" font-family="sans-serif" font-size="12" font-style="italic" lengthAdjust="spacingAndGlyphs" textLength="36" x="1693" y="117.5508">IStage</text><line style="stroke: #A80036; stroke-width: 1.5;" x1="1665" x2="1731" y1="128.6406" y2="128.6406"/><line style="stroke: #A80036; stroke-width: 1.5;" x1="1665" x2="1731" y1="136.6406" y2="136.6406"/><!--class ConcreteEnemy--><rect fill="#FEFECE" filter="url(#fpj5f8j)" height="48" style="stroke: #A80036; stroke-width: 1.5;" width="120" x="1486" y="225.6406"/><ellipse cx="1501" cy="241.6406" fill="#ADD1B2" rx="11" ry="11" style="stroke: #A80036; stroke-width: 1.0;"/><path d="M1503.7031,247.0781 Q1502.7813,248 1500.5156,248 Q1499.25,248 1498.3281,247.0781 Q1496.6719,245.4219 1496.6719,241.8906 Q1496.6719,237.7813 1498.4531,235.9844 Q1499.3906,235.0625 1500.5781,235.0625 Q1502.8438,235.0625 1503.5781,235.7813 Q1504.9688,237.1875 1504.9063,239.5781 L1502.4375,239.5781 Q1502.375,237.4531 1501.6406,236.7188 Q1501.25,236.3125 1500.5781,236.3125 Q1500.5781,236.3125 1500.5156,236.7813 Q1499.1875,238.1094 1499.1875,241.7656 Q1499.1875,244.9531 1500.3281,246.0781 Q1500.8594,246.6094 1500.8594,246.6094 Q1501.1094,246.6094 1501.6406,246.0781 Q1502.3125,245.4219 1502.375,243.0313 L1504.9688,243.0313 Q1504.7656,246.0156 1503.7031,247.0781 Z "/><text fill="#000000" font-family="sans-serif" font-size="12" lengthAdjust="spacingAndGlyphs" textLength="88" x="1515" y="246.5508">ConcreteEnemy</text><line style="stroke: #A80036; stroke-width: 1.5;" x1="1487" x2="1605" y1="257.6406" y2="257.6406"/><line style="stroke: #A80036; stroke-width: 1.5;" x1="1487" x2="1605" y1="265.6406" y2="265.6406"/><!--class IEnemy--><rect fill="#FEFECE" filter="url(#fpj5f8j)" height="48" style="stroke: #A80036; stroke-width: 1.5;" width="75" x="1508.5" y="96.6406"/><ellipse cx="1523.5" cy="112.6406" fill="#B4A7E5" rx="11" ry="11" style="stroke: #A80036; stroke-width: 1.0;"/><path d="M1524.4844,117.5469 L1525.2188,117.5469 L1525.2188,119 L1521.2188,119 L1521.2188,117.5469 L1521.9531,117.5469 L1521.9531,107.5156 L1521.2188,107.5156 L1521.2188,106.0625 L1525.2188,106.0625 L1525.2188,107.5156 L1524.4844,107.5156 L1524.4844,117.5469 Z "/><text fill="#000000" font-family="sans-serif" font-size="12" font-style="italic" lengthAdjust="spacingAndGlyphs" textLength="43" x="1537.5" y="117.5508">IEnemy</text><line style="stroke: #A80036; stroke-width: 1.5;" x1="1509.5" x2="1582.5" y1="128.6406" y2="128.6406"/><line style="stroke: #A80036; stroke-width: 1.5;" x1="1509.5" x2="1582.5" y1="136.6406" y2="136.6406"/><path d="M1374,164.1636 C1374,181.9996 1374,202.3236 1374,218.5656 " fill="none" style="stroke: #A80036; stroke-width: 1.0;"/><polygon fill="#A80036" points="1374,158.7156,1370,167.7156,1374,163.7156,1378,167.7156,1374,158.7156" style="stroke: #A80036; stroke-width: 1.0;"/><path d="M1374,448.6406 C1374,460.2286 1374,474.6696 1374,488.2416 " fill="none" style="stroke: #A80036; stroke-width: 1.0; stroke-dasharray: 7.0,7.0;"/><polygon fill="none" points="1381,488.3186,1374,508.3186,1367,488.3186,1381,488.3186" style="stroke: #A80036; stroke-width: 1.0;"/><path d="M1374,286.1206 C1374,320.3496 1374,371.1676 1374,400.4886 " fill="none" style="stroke: #A80036; stroke-width: 1.0;"/><polygon fill="#A80036" points="1374,280.7746,1370,289.7746,1374,285.7746,1378,289.7746,1374,280.7746" style="stroke: #A80036; stroke-width: 1.0;"/><path d="M245.376,808.6646 C244.865,822.2196 244.319,836.6786 243.88,848.3186 " fill="none" style="stroke: #A80036; stroke-width: 1.0; stroke-dasharray: 7.0,7.0;"/><polygon fill="none" points="238.383,808.3626,246.132,788.6406,252.373,808.8906,238.383,808.3626" style="stroke: #A80036; stroke-width: 1.0;"/><path d="M357.405,680.6406 C335.293,697.2646 305.371,719.7586 282.256,737.1366 " fill="none" style="stroke: #A80036; stroke-width: 1.0;"/><polygon fill="#A80036" points="278.022,740.3186,287.6197,738.1088,282.0189,737.3145,282.8132,731.7137,278.022,740.3186" style="stroke: #A80036; stroke-width: 1.0;"/><path d="M551.677,804.8186 C563.126,819.4406 575.756,835.5696 585.739,848.3186 " fill="none" style="stroke: #A80036; stroke-width: 1.0; stroke-dasharray: 7.0,7.0;"/><polygon fill="none" points="545.829,808.7036,539.01,788.6406,556.851,800.0726,545.829,808.7036" style="stroke: #A80036; stroke-width: 1.0;"/><path d="M686,700.6646 C686,714.2196 686,728.6786 686,740.3186 " fill="none" style="stroke: #A80036; stroke-width: 1.0; stroke-dasharray: 7.0,7.0;"/><polygon fill="none" points="679,700.6406,686,680.6406,693,700.6406,679,700.6406" style="stroke: #A80036; stroke-width: 1.0;"/><path d="M655.692,804.8186 C644.381,819.4406 631.904,835.5696 622.041,848.3186 " fill="none" style="stroke: #A80036; stroke-width: 1.0; stroke-dasharray: 7.0,7.0;"/><polygon fill="none" points="650.433,800.1766,668.207,788.6406,661.506,808.7436,650.433,800.1766" style="stroke: #A80036; stroke-width: 1.0;"/><path d="M99.8412,808.6646 C100.7364,822.2196 101.6912,836.6786 102.4599,848.3186 " fill="none" style="stroke: #A80036; stroke-width: 1.0; stroke-dasharray: 7.0,7.0;"/><polygon fill="none" points="92.8521,809.0586,98.5189,788.6406,106.822,808.1366,92.8521,809.0586" style="stroke: #A80036; stroke-width: 1.0;"/><path d="M393.912,808.6646 C391.994,822.2196 389.947,836.6786 388.3,848.3186 " fill="none" style="stroke: #A80036; stroke-width: 1.0; stroke-dasharray: 7.0,7.0;"/><polygon fill="none" points="387.012,807.4626,396.745,788.6406,400.874,809.4246,387.012,807.4626" style="stroke: #A80036; stroke-width: 1.0;"/><path d="M341.415,687.3626 C330.127,693.7076 317.881,699.9126 306,704.6406 C242.701,729.8326 222.053,720.4056 157,740.6406 C151.461,742.3636 145.696,744.3356 140.027,746.3846 " fill="none" style="stroke: #A80036; stroke-width: 1.0;"/><polygon fill="#FFFFFF" points="352.777,680.7566,345.5795,680.3144,342.403,686.7882,349.6005,687.2304,352.777,680.7566" style="stroke: #A80036; stroke-width: 1.0;"/><path d="M392.114,693.9786 C393.851,709.3216 395.822,726.7386 397.36,740.3186 " fill="none" style="stroke: #A80036; stroke-width: 1.0;"/><polygon fill="#FFFFFF" points="390.604,680.6406,387.3046,687.0526,391.9544,692.5644,395.2538,686.1524,390.604,680.6406" style="stroke: #A80036; stroke-width: 1.0;"/><path d="M416.859,680.6406 C437.717,697.2646 465.94,719.7586 487.745,737.1366 " fill="none" style="stroke: #A80036; stroke-width: 1.0;"/><polygon fill="#A80036" points="491.738,740.3186,487.1941,731.5806,487.8284,737.2018,482.2072,737.836,491.738,740.3186" style="stroke: #A80036; stroke-width: 1.0;"/><path d="M1087.28,448.6406 C1081.1,460.7806 1073.32,476.0516 1066.12,490.1746 " fill="none" style="stroke: #A80036; stroke-width: 1.0; stroke-dasharray: 7.0,7.0;"/><polygon fill="none" points="1072.2,493.6756,1056.88,508.3186,1059.72,487.3206,1072.2,493.6756" style="stroke: #A80036; stroke-width: 1.0;"/><path d="M1123.68,459.1856 C1135.45,475.1746 1149.23,493.9076 1159.84,508.3186 " fill="none" style="stroke: #A80036; stroke-width: 1.0;"/><polygon fill="#FFFFFF" points="1115.92,448.6406,1116.2545,455.844,1123.0324,458.3057,1122.6979,451.1024,1115.92,448.6406" style="stroke: #A80036; stroke-width: 1.0;"/><path d="M1169.25,576.6116 C1165.86,595.4196 1162.01,616.7406 1159.17,632.4926 " fill="none" style="stroke: #A80036; stroke-width: 1.0; stroke-dasharray: 7.0,7.0;"/><polygon fill="none" points="1162.37,575.3156,1172.81,556.8746,1176.15,577.7996,1162.37,575.3156" style="stroke: #A80036; stroke-width: 1.0;"/><path d="M977.614,535.1976 C846.129,539.0296 560.332,551.4866 470,588.6406 C446.367,598.3606 424.223,617.2786 408.919,632.5396 " fill="none" style="stroke: #A80036; stroke-width: 1.0;"/><polygon fill="#A80036" points="982.992,535.0426,973.8814,531.3014,977.994,535.1855,974.11,539.2982,982.992,535.0426" style="stroke: #A80036; stroke-width: 1.0;"/><path d="M230.645,576.9156 C230.492,595.6486 230.318,616.8256 230.19,632.4926 " fill="none" style="stroke: #A80036; stroke-width: 1.0; stroke-dasharray: 7.0,7.0;"/><polygon fill="none" points="223.646,576.8166,230.81,556.8746,237.645,576.9316,223.646,576.8166" style="stroke: #A80036; stroke-width: 1.0;"/><path d="M267.514,559.8296 C279.841,568.8256 293.612,579.0486 306,588.6406 C324.46,602.9356 344.785,619.5366 360.582,632.6376 " fill="none" style="stroke: #A80036; stroke-width: 1.0;"/><polygon fill="#A80036" points="263.393,556.8276,268.3134,565.3593,267.4348,559.7711,273.023,558.8925,263.393,556.8276" style="stroke: #A80036; stroke-width: 1.0;"/><path d="M840.571,680.7276 C826.742,688.3866 811.231,696.9246 797,704.6406 C776.66,715.6686 754.131,727.6806 734.713,737.9716 " fill="none" style="stroke: #A80036; stroke-width: 1.0;"/><polygon fill="#A80036" points="729.847,740.5486,739.6726,739.8715,734.2656,738.2086,735.9285,732.8017,729.847,740.5486" style="stroke: #A80036; stroke-width: 1.0;"/><path d="M1311.02,558.4946 C1285.65,567.2906 1255.84,576.1186 1228,580.6406 C1186.43,587.3916 509.592,574.2866 470,588.6406 C445.631,597.4756 423.23,616.9036 408.022,632.5756 " fill="none" style="stroke: #A80036; stroke-width: 1.0;"/><polygon fill="#A80036" points="1316.03,556.7376,1306.2129,555.9467,1311.3126,558.3948,1308.8645,563.4945,1316.03,556.7376" style="stroke: #A80036; stroke-width: 1.0;"/><path d="M1698,164.9386 C1698,185.2386 1698,208.6146 1698,225.4946 " fill="none" style="stroke: #A80036; stroke-width: 1.0; stroke-dasharray: 7.0,7.0;"/><polygon fill="none" points="1691,164.9346,1698,144.9346,1705,164.9346,1691,164.9346" style="stroke: #A80036; stroke-width: 1.0;"/><path d="M1546,164.9386 C1546,185.2386 1546,208.6146 1546,225.4946 " fill="none" style="stroke: #A80036; stroke-width: 1.0; stroke-dasharray: 7.0,7.0;"/><polygon fill="none" points="1539,164.9346,1546,144.9346,1553,164.9346,1539,164.9346" style="stroke: #A80036; stroke-width: 1.0;"/></g></svg>